<svg width="104" height="121" viewBox="0 0 104 121" fill="none" xmlns="http://www.w3.org/2000/svg">
<path d="M101.634 59.0314C101.687 59.0314 101.741 59.0314 101.848 59.0314C102.545 59.0314 103.135 58.6136 103.349 57.9869C103.617 57.3079 103.296 56.5246 102.652 56.1068L77.5665 41.4314C76.8161 40.9613 75.7976 41.2225 75.3688 41.9536C74.8864 42.6848 75.1544 43.6771 75.9048 44.0949L94.7728 55.1145C85.1244 54.2789 73.8143 53.8088 62.4507 53.5999L67.1141 42.4237C67.1677 42.3192 70.9734 32.9186 74.2968 23.3613C80.7826 4.50791 79.4962 1.73996 77.7809 0.590993C77.1377 0.173188 76.3336 0.0687371 75.5832 0.329865C74.404 0.747669 72.0455 1.58327 65.6668 18.8177C62.6115 27.0171 60.0922 35.1643 60.0922 35.2688C60.0386 35.4254 57.9481 43.0504 55.268 53.4955C27.8773 53.1821 2.36267 54.1222 1.93385 54.1222C1.02262 54.1744 0.379395 54.9056 0.379395 55.7412C0.432997 56.629 1.12983 57.2557 2.04106 57.2557C2.46988 57.2557 27.5021 56.3157 54.464 56.629C53.0167 62.4783 51.4086 69.0065 49.9078 75.5347L32.2191 118.046C31.8975 118.83 32.2727 119.77 33.1303 120.083C33.3447 120.135 33.5591 120.188 33.7199 120.188C34.3631 120.188 34.9528 119.822 35.2208 119.195L46.37 92.4035C45.7268 95.9026 45.1372 99.2451 44.762 102.17C44.6548 103.005 45.2444 103.841 46.1556 103.945C47.0133 104.05 47.8709 103.475 47.9781 102.588C48.9965 95.3282 50.9262 85.9276 53.0703 76.4747L61.325 56.7335C75.8512 57.0468 90.5382 57.7257 101.634 59.0314ZM63.0939 36.2088C67.3285 22.5779 73.1175 7.32809 75.9584 3.98565C76.012 5.7091 75.4224 10.4616 70.9198 23.4658C67.7573 32.6053 64.1659 41.2747 64.1659 41.3269L59.0201 53.5999C58.8593 53.5999 58.6985 53.5999 58.5377 53.5999C61.057 43.6248 63.0939 36.4177 63.0939 36.2088Z" fill="white"/>
</svg>
