<svg width="248" height="121" viewBox="0 0 248 121" fill="none" xmlns="http://www.w3.org/2000/svg">
<g style="mix-blend-mode:difference">
<path d="M75.3588 88.1082C74.4475 87.2204 73.4291 86.5415 72.1962 86.0714C70.9634 85.6014 69.7305 85.3403 68.4441 85.3403C66.1928 85.3403 64.2095 85.967 62.5479 87.2204V78.3943C62.5479 77.872 62.3334 77.402 61.9582 77.0364C61.583 76.6708 61.1006 76.4619 60.5646 76.4619C60.0285 76.4619 59.5461 76.6708 59.1709 77.0364C58.7957 77.402 58.5813 77.872 58.5813 78.3943V103.88C58.5813 104.403 58.7957 104.873 59.1709 105.238C59.5461 105.604 60.0285 105.813 60.5646 105.813C61.1006 105.813 61.583 105.604 61.9582 105.238C62.3334 104.873 62.5479 104.403 62.5479 103.88V94.8453C62.5479 94.0619 62.7087 93.3308 63.0303 92.5996C63.3519 91.9207 63.7807 91.294 64.3167 90.7717C64.8527 90.2495 65.496 89.8317 66.1928 89.5183C66.8896 89.2049 67.6401 89.0483 68.4977 89.0483C69.3017 89.0483 70.0522 89.2049 70.8026 89.5183C71.553 89.8317 72.1426 90.2495 72.6787 90.7717C73.2147 91.294 73.6435 91.9207 73.9651 92.5996C74.2867 93.2786 74.4475 94.0619 74.4475 94.8453V103.88C74.4475 104.403 74.6619 104.873 75.0371 105.238C75.4124 105.604 75.8948 105.813 76.4308 105.813C76.9668 105.813 77.4493 105.604 77.8245 105.238C78.1997 104.873 78.4141 104.403 78.4141 103.88V94.8453C78.4141 93.5397 78.1461 92.2863 77.6101 91.0851C77.074 89.8839 76.27 88.9438 75.3588 88.1082Z" fill="#CECECE"/>
<path d="M95.2985 85.7566C94.7625 85.5477 94.1729 85.4433 93.5297 85.3388C92.8864 85.2866 92.2968 85.2344 91.7608 85.2344C90.528 85.2344 89.3487 85.4433 88.2231 85.8089C87.0974 86.2267 86.079 86.7489 85.1677 87.4801V87.1667C85.1677 86.6445 84.9533 86.1745 84.5781 85.8089C84.2029 85.4433 83.7205 85.2344 83.1845 85.2344C82.6484 85.2344 82.166 85.4433 81.7908 85.8089C81.4156 86.1745 81.2012 86.6445 81.2012 87.1667V103.931C81.2012 104.453 81.4156 104.923 81.7908 105.289C82.166 105.655 82.6484 105.863 83.1845 105.863C83.7205 105.863 84.2029 105.655 84.5781 105.289C84.9533 104.923 85.1677 104.453 85.1677 103.931V95.575C85.1677 94.6872 85.3285 93.8516 85.7037 93.0682C86.0254 92.2848 86.5078 91.6059 87.0974 91.0314C87.687 90.457 88.3839 89.9869 89.1879 89.6735C89.9919 89.3602 90.8496 89.1513 91.7608 89.1513C92.672 89.1513 93.5297 89.308 94.3337 89.6213C94.6553 89.778 94.9233 89.8302 95.1377 89.8302C95.4057 89.8302 95.6737 89.778 95.8882 89.6735C96.1026 89.5691 96.317 89.4124 96.5314 89.2557C96.6922 89.0991 96.853 88.8902 96.9602 88.629C97.0674 88.4201 97.121 88.159 97.121 87.8979C97.121 87.3756 96.9602 86.9578 96.585 86.5923C96.2634 86.2267 95.8346 85.9655 95.2985 85.7566Z" fill="#CECECE"/>
<path d="M117.383 88.2635C115.293 86.2789 112.827 85.2344 109.932 85.2344C107.038 85.2344 104.519 86.2267 102.482 88.2635C100.445 90.248 99.3728 92.7026 99.3728 95.5228C99.3728 98.343 100.391 100.798 102.482 102.782C104.519 104.767 107.038 105.811 109.932 105.811C112.559 105.811 114.864 104.976 116.847 103.304C117.222 102.939 117.437 102.469 117.437 101.947C117.437 101.372 117.276 100.954 116.901 100.589C116.525 100.223 116.043 100.066 115.507 100.066C115.025 100.066 114.596 100.223 114.221 100.536C113.631 101.006 112.988 101.372 112.291 101.633C111.594 101.894 110.844 101.999 109.986 101.999C109.236 101.999 108.539 101.894 107.896 101.685C107.199 101.477 106.609 101.163 106.073 100.745C105.537 100.328 105.001 99.8575 104.626 99.3353C104.251 98.813 103.875 98.1863 103.661 97.5074H118.562C119.098 97.5074 119.581 97.3507 119.956 96.9851C120.331 96.6195 120.546 96.1495 120.546 95.6273C120.546 94.2172 120.278 92.9115 119.795 91.6581C119.152 90.3525 118.402 89.2557 117.383 88.2635ZM103.554 93.6427C103.768 92.9638 104.036 92.3371 104.465 91.8148C104.894 91.2926 105.376 90.7703 105.912 90.4047C106.448 90.0391 107.092 89.6736 107.788 89.4647C108.485 89.2558 109.182 89.1513 109.879 89.1513C110.576 89.1513 111.272 89.2558 111.969 89.4647C112.666 89.6736 113.256 89.9869 113.792 90.4047C114.328 90.8225 114.864 91.2926 115.239 91.8148C115.668 92.3893 115.989 92.9638 116.204 93.6427H103.554Z" fill="#CECECE"/>
<path d="M134.054 85.2871C131.16 85.2871 128.64 86.2794 126.604 88.3162C124.567 90.3008 123.495 92.7553 123.495 95.5755C123.495 98.3957 124.513 100.85 126.604 102.835C128.64 104.819 131.16 105.864 134.054 105.864C135.287 105.864 136.466 105.655 137.592 105.289C138.718 104.872 139.736 104.349 140.647 103.618V103.984C140.647 104.506 140.862 104.976 141.237 105.342C141.612 105.707 142.095 105.916 142.631 105.916C143.167 105.916 143.649 105.707 144.024 105.342C144.399 104.976 144.614 104.506 144.614 103.984V95.6278C144.614 92.8076 143.595 90.353 141.505 88.3684C139.414 86.2794 136.895 85.2871 134.054 85.2871ZM140.111 98.0301C139.79 98.8135 139.307 99.4925 138.718 100.067C138.128 100.641 137.431 101.111 136.627 101.477C135.823 101.843 134.965 101.999 134.054 101.999C133.143 101.999 132.232 101.843 131.428 101.477C130.624 101.111 129.927 100.694 129.337 100.067C128.748 99.4925 128.265 98.8135 127.944 98.0301C127.622 97.2467 127.408 96.4111 127.408 95.5233C127.408 94.6355 127.568 93.7999 127.944 93.0165C128.265 92.2331 128.748 91.5542 129.337 90.9797C129.927 90.4052 130.624 89.9352 131.428 89.5696C132.232 89.204 133.089 89.0473 134.054 89.0473C134.965 89.0473 135.823 89.204 136.627 89.5696C137.431 89.9352 138.128 90.353 138.718 90.9797C139.307 91.5542 139.79 92.2331 140.111 93.0165C140.433 93.7999 140.647 94.6355 140.647 95.5233C140.647 96.4111 140.487 97.2467 140.111 98.0301Z" fill="#CECECE"/>
<path d="M166.751 76.4619C166.161 76.4619 165.732 76.6186 165.357 76.9842C164.982 77.3497 164.821 77.8198 164.821 78.342V87.4815C162.891 85.967 160.694 85.2358 158.228 85.2358C155.334 85.2358 152.814 86.2281 150.777 88.2649C148.74 90.2494 147.668 92.7041 147.668 95.5242C147.668 98.3444 148.687 100.799 150.777 102.784C152.814 104.768 155.334 105.813 158.228 105.813C161.123 105.813 163.588 104.82 165.679 102.784C167.716 100.799 168.788 98.3966 168.788 95.5242V78.342C168.788 77.7675 168.573 77.3497 168.198 76.9842C167.769 76.6186 167.287 76.4619 166.751 76.4619ZM164.232 98.0311C163.91 98.8144 163.427 99.4934 162.838 100.068C162.248 100.642 161.551 101.112 160.747 101.478C159.943 101.844 159.086 102 158.174 102C157.263 102 156.352 101.844 155.548 101.478C154.744 101.112 154.047 100.695 153.457 100.068C152.868 99.4934 152.385 98.8144 152.064 98.0311C151.742 97.2477 151.528 96.4121 151.528 95.5242C151.528 94.6364 151.689 93.8008 152.064 93.0174C152.385 92.234 152.868 91.5551 153.457 90.9806C154.047 90.4061 154.744 89.9361 155.548 89.5705C156.352 89.2049 157.21 89.0483 158.174 89.0483C159.086 89.0483 159.943 89.2049 160.747 89.5705C161.551 89.9361 162.248 90.3539 162.838 90.9806C163.427 91.5551 163.91 92.234 164.232 93.0174C164.553 93.8008 164.768 94.6364 164.768 95.5242C164.768 96.4121 164.607 97.2477 164.232 98.0311Z" fill="#CECECE"/>
<path d="M182.296 85.2871C179.401 85.2871 176.882 86.2794 174.845 88.3162C172.808 90.3008 171.736 92.7553 171.736 95.5755C171.736 98.3957 172.755 100.85 174.845 102.835C176.882 104.819 179.401 105.864 182.296 105.864C183.529 105.864 184.708 105.655 185.833 105.289C186.959 104.872 187.978 104.349 188.889 103.618V103.984C188.889 104.506 189.103 104.976 189.478 105.342C189.854 105.707 190.336 105.916 190.872 105.916C191.408 105.916 191.89 105.707 192.266 105.342C192.641 104.976 192.855 104.506 192.855 103.984V95.6278C192.855 92.8076 191.837 90.353 189.746 88.3684C187.656 86.2794 185.137 85.2871 182.296 85.2871ZM188.353 98.0301C188.031 98.8135 187.549 99.4925 186.959 100.067C186.369 100.641 185.673 101.111 184.869 101.477C184.065 101.843 183.207 101.999 182.296 101.999C181.384 101.999 180.473 101.843 179.669 101.477C178.865 101.111 178.168 100.694 177.579 100.067C176.989 99.4925 176.507 98.8135 176.185 98.0301C175.863 97.2467 175.649 96.4111 175.649 95.5233C175.649 94.6355 175.81 93.7999 176.185 93.0165C176.507 92.2331 176.989 91.5542 177.579 90.9797C178.168 90.4052 178.865 89.9352 179.669 89.5696C180.473 89.204 181.331 89.0473 182.296 89.0473C183.207 89.0473 184.065 89.204 184.869 89.5696C185.673 89.9352 186.369 90.353 186.959 90.9797C187.549 91.5542 188.031 92.2331 188.353 93.0165C188.674 93.7999 188.889 94.6355 188.889 95.5233C188.889 96.4111 188.728 97.2467 188.353 98.0301Z" fill="#CECECE"/>
<path d="M200.466 102H199.555V78.3943C199.555 77.872 199.394 77.402 199.019 77.0364C198.643 76.6708 198.161 76.4619 197.625 76.4619C197.089 76.4619 196.607 76.6708 196.231 77.0364C195.856 77.402 195.695 77.872 195.695 78.3943V103.933C195.695 104.455 195.91 104.925 196.285 105.29C196.66 105.656 197.143 105.865 197.679 105.865H200.573C201.109 105.865 201.592 105.656 201.967 105.29C202.342 104.925 202.556 104.455 202.556 103.933C202.556 103.41 202.342 102.94 201.967 102.575C201.484 102.157 201.002 102 200.466 102Z" fill="#CECECE"/>
<path d="M207.917 79.334C207.274 79.334 206.738 79.5429 206.256 80.0129C205.773 80.4829 205.559 81.0052 205.559 81.6319C205.559 82.2586 205.773 82.7809 206.256 83.2509C206.738 83.7209 207.274 83.9298 207.917 83.9298C208.561 83.9298 209.097 83.7209 209.579 83.2509C210.061 82.7809 210.276 82.2586 210.276 81.6319C210.276 81.0052 210.061 80.4829 209.579 80.0129C209.097 79.5429 208.561 79.334 207.917 79.334Z" fill="#CECECE"/>
<path d="M207.917 85.2871C207.381 85.2871 206.899 85.496 206.524 85.8616C206.149 86.2272 205.934 86.6972 205.934 87.2194V103.932C205.934 104.454 206.149 104.924 206.524 105.289C206.899 105.655 207.381 105.864 207.917 105.864C208.453 105.864 208.936 105.655 209.311 105.289C209.686 104.924 209.901 104.454 209.901 103.932V87.2194C209.901 86.6972 209.686 86.2272 209.311 85.8616C208.882 85.4438 208.453 85.2871 207.917 85.2871Z" fill="#CECECE"/>
<path d="M224.373 102C221.854 102 220.621 100.799 220.621 98.3439V89.1H222.98C223.516 89.1 223.998 88.8911 224.373 88.5255C224.749 88.1599 224.963 87.6899 224.963 87.1676C224.963 86.6454 224.749 86.1754 224.373 85.8098C223.998 85.4442 223.516 85.2353 222.98 85.2353H220.621V78.3415C220.621 77.8192 220.407 77.3492 220.032 76.9836C219.656 76.6181 219.174 76.4092 218.638 76.4092C218.102 76.4092 217.62 76.6181 217.244 76.9836C216.869 77.3492 216.655 77.8192 216.655 78.3415V85.2353H215.797C215.261 85.2353 214.832 85.4442 214.457 85.8098C214.082 86.1754 213.867 86.6454 213.867 87.1676C213.867 87.6899 214.082 88.1599 214.457 88.5255C214.832 88.8911 215.315 89.1 215.797 89.1H216.708V98.3439C216.708 103.358 219.281 105.812 224.427 105.812C224.963 105.812 225.445 105.603 225.821 105.238C226.196 104.872 226.41 104.402 226.41 103.88C226.41 103.358 226.196 102.888 225.821 102.522C225.445 102.156 224.909 102 224.373 102Z" fill="#CECECE"/>
<path d="M247.047 86.4356C246.94 86.2267 246.779 86.0178 246.618 85.8089C246.457 85.6 246.243 85.4955 245.975 85.391C245.707 85.2866 245.493 85.2344 245.225 85.2344C244.689 85.2344 244.313 85.3388 244.045 85.6C243.777 85.8611 243.563 86.1222 243.402 86.4878L238.096 98.8653L232.789 86.54C232.628 86.1222 232.36 85.8089 232.038 85.6C231.717 85.3911 231.342 85.2866 230.966 85.2866C230.698 85.2866 230.43 85.3388 230.216 85.4433C230.002 85.5477 229.787 85.7044 229.573 85.8611C229.358 86.0178 229.251 86.2267 229.144 86.4878C229.037 86.7489 228.983 86.9578 228.983 87.2189C228.983 87.5323 229.037 87.7934 229.198 88.1068L236.005 103.983L232.575 111.922C232.467 112.183 232.36 112.496 232.36 112.757C232.36 113.332 232.521 113.75 232.896 114.115C233.271 114.481 233.754 114.69 234.29 114.69C234.719 114.69 235.04 114.585 235.415 114.324C235.791 114.063 236.005 113.802 236.166 113.384L246.993 88.0546C247.154 87.7412 247.208 87.4801 247.208 87.1667C247.208 86.9056 247.154 86.6967 247.047 86.4356Z" fill="#CECECE"/>
<path d="M102.16 59.7492C102.214 59.7492 102.267 59.7492 102.375 59.7492C103.071 59.7492 103.661 59.3314 103.875 58.7047C104.144 58.0257 103.822 57.2424 103.179 56.8245L78.0928 42.1491C77.3424 41.6791 76.324 41.9402 75.8952 42.6714C75.4127 43.4026 75.6807 44.3948 76.4312 44.8127L95.2991 55.8322C85.6507 54.9966 74.3407 54.5266 62.977 54.3177L67.6404 43.1414C67.694 43.037 71.4998 33.6364 74.8231 24.0791C81.309 5.22569 80.0225 2.45773 78.3073 1.30877C77.664 0.890962 76.86 0.786511 76.1096 1.04764C74.9303 1.46544 72.5718 2.30105 66.1932 19.5355C63.1378 27.7349 60.6185 35.8821 60.6185 35.9865C60.5649 36.1432 58.4745 43.7682 55.7944 54.2133C28.4037 53.8999 2.88904 54.8399 2.46022 54.8399C1.54898 54.8922 0.905762 55.6233 0.905762 56.459C0.959364 57.3468 1.65619 57.9735 2.56743 57.9735C2.99625 57.9735 28.0284 57.0334 54.9903 57.3468C53.5431 63.1961 51.935 69.7242 50.4341 76.2524L32.7454 118.764C32.4238 119.547 32.799 120.487 33.6567 120.801C33.8711 120.853 34.0855 120.905 34.2463 120.905C34.8895 120.905 35.4791 120.54 35.7472 119.913L46.8964 93.1213C46.2532 96.6204 45.6635 99.9628 45.2883 102.887C45.1811 103.723 45.7708 104.559 46.682 104.663C47.5396 104.768 48.3973 104.193 48.5045 103.305C49.5229 96.0459 51.4526 86.6453 53.5967 77.1925L61.8514 57.4512C76.3776 57.7646 91.0646 58.4435 102.16 59.7492ZM63.6203 36.9266C67.8548 23.2957 73.6439 8.04586 76.4848 4.70343C76.5384 6.42687 75.9488 11.1794 71.4462 24.1836C68.2837 33.323 64.6923 41.9925 64.6923 42.0447L59.5465 54.3177C59.3857 54.3177 59.2249 54.3177 59.0641 54.3177C61.5834 44.3426 63.6203 37.1355 63.6203 36.9266Z" fill="#CECECE"/>
</g>
</svg>
