<svg width="789" height="736" viewBox="0 0 789 736" fill="none" xmlns="http://www.w3.org/2000/svg">
<circle cx="395" cy="200.898" r="199" fill="#D9D9D9" fill-opacity="0.01" stroke="#202020" stroke-width="2"/>
<circle cx="545" cy="443.932" r="199" fill="#D9D9D9" fill-opacity="0.01" stroke="#202020" stroke-width="2"/>
<circle cx="245" cy="443.932" r="199" fill="#D9D9D9" fill-opacity="0.01" stroke="#202020" stroke-width="2"/>
<path fill-rule="evenodd" clip-rule="evenodd" d="M439.218 395.995C424.994 399.205 410.195 400.9 395 400.9C379.805 400.9 365.006 399.205 350.781 395.995C358.6 364.209 374.019 335.412 395 311.641C415.981 335.412 431.399 364.209 439.218 395.995Z" fill="#202020"/>
<path d="M354.239 171.398H371.459V174.128H364.319V195.898H361.379V174.128H354.239V171.398ZM378.609 188.058C378.679 189.785 379.216 191.173 380.219 192.223C381.223 193.273 382.623 193.798 384.419 193.798C385.236 193.798 385.948 193.705 386.554 193.518C387.161 193.332 387.674 193.075 388.094 192.748C388.538 192.422 388.888 192.048 389.144 191.628C389.424 191.185 389.646 190.718 389.809 190.228L392.399 190.928C391.909 192.538 390.999 193.857 389.669 194.883C388.363 195.887 386.589 196.388 384.349 196.388C383.113 196.388 381.969 196.178 380.919 195.758C379.893 195.315 379.006 194.697 378.259 193.903C377.513 193.11 376.929 192.165 376.509 191.068C376.089 189.972 375.879 188.758 375.879 187.428V186.588C375.879 185.375 376.089 184.243 376.509 183.193C376.953 182.143 377.559 181.245 378.329 180.498C379.099 179.728 379.998 179.133 381.024 178.713C382.074 178.27 383.206 178.048 384.419 178.048C385.843 178.048 387.068 178.317 388.094 178.853C389.144 179.367 389.996 180.008 390.649 180.778C391.326 181.548 391.816 182.388 392.119 183.298C392.446 184.208 392.609 185.048 392.609 185.818V188.058H378.609ZM384.419 180.638C383.649 180.638 382.926 180.767 382.249 181.023C381.596 181.257 381.013 181.595 380.499 182.038C380.009 182.482 379.601 183.007 379.274 183.613C378.971 184.197 378.773 184.838 378.679 185.538H389.879C389.833 184.792 389.646 184.115 389.319 183.508C389.016 182.902 388.608 182.388 388.094 181.968C387.604 181.548 387.033 181.222 386.379 180.988C385.749 180.755 385.096 180.638 384.419 180.638ZM410.645 192.958H410.225C409.665 194.125 408.883 194.988 407.88 195.548C406.9 196.108 405.862 196.388 404.765 196.388C403.622 196.388 402.56 196.202 401.58 195.828C400.6 195.432 399.737 194.86 398.99 194.113C398.267 193.343 397.695 192.41 397.275 191.313C396.855 190.217 396.645 188.945 396.645 187.498V186.938C396.645 185.515 396.855 184.255 397.275 183.158C397.695 182.062 398.267 181.14 398.99 180.393C399.737 179.623 400.6 179.04 401.58 178.643C402.56 178.247 403.598 178.048 404.695 178.048C405.885 178.048 406.958 178.317 407.915 178.853C408.895 179.367 409.665 180.172 410.225 181.268H410.645V178.538H413.375V192.328C413.375 193.028 413.69 193.378 414.32 193.378H415.195V195.898H413.34C412.547 195.898 411.893 195.642 411.38 195.128C410.89 194.615 410.645 193.962 410.645 193.168V192.958ZM405.045 193.798C405.862 193.798 406.608 193.647 407.285 193.343C407.985 193.04 408.58 192.608 409.07 192.048C409.56 191.488 409.945 190.823 410.225 190.053C410.505 189.26 410.645 188.385 410.645 187.428V187.008C410.645 186.075 410.505 185.223 410.225 184.453C409.945 183.66 409.548 182.983 409.035 182.423C408.545 181.863 407.95 181.432 407.25 181.128C406.573 180.802 405.838 180.638 405.045 180.638C404.228 180.638 403.482 180.79 402.805 181.093C402.128 181.397 401.533 181.828 401.02 182.388C400.53 182.925 400.145 183.59 399.865 184.383C399.585 185.153 399.445 186.005 399.445 186.938V187.498C399.445 189.482 399.958 191.033 400.985 192.153C402.035 193.25 403.388 193.798 405.045 193.798ZM436.171 195.898H433.441V183.438C433.441 182.622 433.254 181.957 432.881 181.443C432.507 180.907 431.912 180.638 431.096 180.638C430.326 180.638 429.696 180.93 429.206 181.513C428.739 182.073 428.506 182.948 428.506 184.138V195.898H425.776V183.298C425.776 182.528 425.566 181.898 425.146 181.408C424.726 180.895 424.166 180.638 423.466 180.638C422.626 180.638 421.972 180.942 421.506 181.548C421.062 182.155 420.841 182.948 420.841 183.928V195.898H418.111V178.538H420.841V180.428H421.261C421.564 179.612 422.007 179.017 422.591 178.643C423.174 178.247 423.862 178.048 424.656 178.048C425.496 178.048 426.184 178.27 426.721 178.713C427.281 179.157 427.666 179.728 427.876 180.428H428.296C429.089 178.842 430.349 178.048 432.076 178.048C433.382 178.048 434.386 178.468 435.086 179.308C435.809 180.125 436.171 181.198 436.171 182.528V195.898Z" fill="black"/>
<path d="M122.85 480.692C123.853 480.692 124.705 480.528 125.405 480.202C126.128 479.852 126.712 479.397 127.155 478.837C127.622 478.253 127.96 477.6 128.17 476.877C128.403 476.13 128.52 475.348 128.52 474.532V474.112H131.46V474.532C131.46 475.768 131.273 476.935 130.9 478.032C130.527 479.105 129.978 480.05 129.255 480.867C128.532 481.66 127.633 482.29 126.56 482.757C125.487 483.2 124.25 483.422 122.85 483.422C120.143 483.422 118.032 482.57 116.515 480.867C114.998 479.163 114.24 476.678 114.24 473.412V467.952C114.24 464.778 114.998 462.317 116.515 460.567C118.032 458.817 120.143 457.942 122.85 457.942C124.25 457.942 125.487 458.175 126.56 458.642C127.633 459.085 128.532 459.715 129.255 460.532C129.978 461.325 130.527 462.27 130.9 463.367C131.273 464.44 131.46 465.595 131.46 466.832V467.252H128.52V466.832C128.497 466.038 128.368 465.268 128.135 464.522C127.925 463.775 127.587 463.122 127.12 462.562C126.677 461.978 126.105 461.523 125.405 461.197C124.705 460.847 123.853 460.672 122.85 460.672C120.96 460.672 119.537 461.36 118.58 462.737C117.647 464.113 117.18 465.922 117.18 468.162V473.202C117.18 475.605 117.647 477.46 118.58 478.767C119.537 480.05 120.96 480.692 122.85 480.692ZM148.866 465.572H151.596V482.932H148.866V479.782H148.446C147.886 480.902 147.151 481.788 146.241 482.442C145.331 483.095 144.176 483.422 142.776 483.422C141.819 483.422 140.932 483.258 140.116 482.932C139.322 482.628 138.634 482.162 138.051 481.532C137.491 480.902 137.047 480.12 136.721 479.187C136.417 478.253 136.266 477.168 136.266 475.932V465.572H138.996V475.582C138.996 477.402 139.369 478.732 140.116 479.572C140.862 480.412 142.006 480.832 143.546 480.832C145.202 480.832 146.497 480.272 147.431 479.152C148.387 478.008 148.866 476.492 148.866 474.602V465.572ZM161.511 470.052C161.511 470.892 161.861 471.533 162.561 471.977C163.285 472.42 164.591 472.712 166.481 472.852C168.511 473.015 170.051 473.505 171.101 474.322C172.175 475.115 172.711 476.282 172.711 477.822V478.032C172.711 478.872 172.536 479.63 172.186 480.307C171.86 480.96 171.393 481.52 170.786 481.987C170.203 482.453 169.48 482.803 168.616 483.037C167.776 483.293 166.855 483.422 165.851 483.422C164.498 483.422 163.331 483.247 162.351 482.897C161.395 482.523 160.59 482.045 159.936 481.462C159.306 480.855 158.828 480.178 158.501 479.432C158.175 478.662 157.988 477.892 157.941 477.122L160.531 476.492C160.648 477.822 161.161 478.895 162.071 479.712C162.981 480.505 164.195 480.902 165.711 480.902C166.995 480.902 168.021 480.657 168.791 480.167C169.585 479.653 169.981 478.942 169.981 478.032C169.981 477.052 169.596 476.352 168.826 475.932C168.056 475.512 166.808 475.243 165.081 475.127C163.075 474.987 161.535 474.52 160.461 473.727C159.388 472.933 158.851 471.778 158.851 470.262V470.052C158.851 469.235 159.026 468.523 159.376 467.917C159.726 467.287 160.193 466.762 160.776 466.342C161.383 465.922 162.06 465.607 162.806 465.397C163.553 465.187 164.335 465.082 165.151 465.082C166.295 465.082 167.298 465.245 168.161 465.572C169.025 465.875 169.748 466.283 170.331 466.797C170.915 467.287 171.358 467.858 171.661 468.512C171.988 469.165 172.198 469.818 172.291 470.472L169.701 471.102C169.585 469.982 169.13 469.107 168.336 468.477C167.566 467.847 166.551 467.532 165.291 467.532C164.801 467.532 164.323 467.59 163.856 467.707C163.413 467.8 163.016 467.952 162.666 468.162C162.316 468.372 162.036 468.64 161.826 468.967C161.616 469.27 161.511 469.632 161.511 470.052ZM178.742 465.572H184.202V458.432H186.932V465.572H193.652V468.092H186.932V479.362C186.932 480.062 187.247 480.412 187.877 480.412H192.812V482.932H186.897C186.104 482.932 185.45 482.675 184.937 482.162C184.447 481.648 184.202 480.995 184.202 480.202V468.092H178.742V465.572ZM217.148 474.462C217.148 475.908 216.903 477.192 216.413 478.312C215.946 479.408 215.316 480.342 214.523 481.112C213.729 481.858 212.796 482.43 211.723 482.827C210.673 483.223 209.576 483.422 208.433 483.422C207.266 483.422 206.158 483.223 205.108 482.827C204.058 482.43 203.136 481.858 202.343 481.112C201.549 480.342 200.908 479.408 200.418 478.312C199.951 477.192 199.718 475.908 199.718 474.462V474.042C199.718 472.618 199.951 471.358 200.418 470.262C200.908 469.142 201.549 468.197 202.343 467.427C203.159 466.657 204.093 466.073 205.143 465.677C206.193 465.28 207.289 465.082 208.433 465.082C209.576 465.082 210.673 465.28 211.723 465.677C212.773 466.073 213.694 466.657 214.488 467.427C215.304 468.197 215.946 469.142 216.413 470.262C216.903 471.358 217.148 472.618 217.148 474.042V474.462ZM208.433 480.832C209.273 480.832 210.043 480.692 210.743 480.412C211.466 480.108 212.096 479.677 212.633 479.117C213.169 478.557 213.589 477.892 213.893 477.122C214.196 476.328 214.348 475.442 214.348 474.462V474.042C214.348 473.108 214.196 472.257 213.893 471.487C213.589 470.693 213.169 470.017 212.633 469.457C212.096 468.897 211.466 468.465 210.743 468.162C210.019 467.835 209.249 467.672 208.433 467.672C207.616 467.672 206.846 467.835 206.123 468.162C205.399 468.465 204.769 468.897 204.233 469.457C203.696 470.017 203.276 470.693 202.973 471.487C202.669 472.257 202.518 473.108 202.518 474.042V474.462C202.518 475.442 202.669 476.328 202.973 477.122C203.276 477.892 203.696 478.557 204.233 479.117C204.769 479.677 205.388 480.108 206.088 480.412C206.811 480.692 207.593 480.832 208.433 480.832ZM238.893 482.932H236.163V470.472C236.163 469.655 235.977 468.99 235.603 468.477C235.23 467.94 234.635 467.672 233.818 467.672C233.048 467.672 232.418 467.963 231.928 468.547C231.462 469.107 231.228 469.982 231.228 471.172V482.932H228.498V470.332C228.498 469.562 228.288 468.932 227.868 468.442C227.448 467.928 226.888 467.672 226.188 467.672C225.348 467.672 224.695 467.975 224.228 468.582C223.785 469.188 223.563 469.982 223.563 470.962V482.932H220.833V465.572H223.563V467.462H223.983C224.287 466.645 224.73 466.05 225.313 465.677C225.897 465.28 226.585 465.082 227.378 465.082C228.218 465.082 228.907 465.303 229.443 465.747C230.003 466.19 230.388 466.762 230.598 467.462H231.018C231.812 465.875 233.072 465.082 234.798 465.082C236.105 465.082 237.108 465.502 237.808 466.342C238.532 467.158 238.893 468.232 238.893 469.562V482.932ZM245.624 475.092C245.694 476.818 246.231 478.207 247.234 479.257C248.237 480.307 249.637 480.832 251.434 480.832C252.251 480.832 252.962 480.738 253.569 480.552C254.176 480.365 254.689 480.108 255.109 479.782C255.552 479.455 255.902 479.082 256.159 478.662C256.439 478.218 256.661 477.752 256.824 477.262L259.414 477.962C258.924 479.572 258.014 480.89 256.684 481.917C255.377 482.92 253.604 483.422 251.364 483.422C250.127 483.422 248.984 483.212 247.934 482.792C246.907 482.348 246.021 481.73 245.274 480.937C244.527 480.143 243.944 479.198 243.524 478.102C243.104 477.005 242.894 475.792 242.894 474.462V473.622C242.894 472.408 243.104 471.277 243.524 470.227C243.967 469.177 244.574 468.278 245.344 467.532C246.114 466.762 247.012 466.167 248.039 465.747C249.089 465.303 250.221 465.082 251.434 465.082C252.857 465.082 254.082 465.35 255.109 465.887C256.159 466.4 257.011 467.042 257.664 467.812C258.341 468.582 258.831 469.422 259.134 470.332C259.461 471.242 259.624 472.082 259.624 472.852V475.092H245.624ZM251.434 467.672C250.664 467.672 249.941 467.8 249.264 468.057C248.611 468.29 248.027 468.628 247.514 469.072C247.024 469.515 246.616 470.04 246.289 470.647C245.986 471.23 245.787 471.872 245.694 472.572H256.894C256.847 471.825 256.661 471.148 256.334 470.542C256.031 469.935 255.622 469.422 255.109 469.002C254.619 468.582 254.047 468.255 253.394 468.022C252.764 467.788 252.111 467.672 251.434 467.672ZM264.08 465.572H270.38V467.882H270.8C271.243 466.925 271.873 466.225 272.69 465.782C273.506 465.315 274.44 465.082 275.49 465.082C277.24 465.082 278.651 465.653 279.725 466.797C280.798 467.94 281.37 469.608 281.44 471.802L278.57 472.222C278.57 470.612 278.185 469.457 277.415 468.757C276.645 468.033 275.7 467.672 274.58 467.672C273.856 467.672 273.226 467.812 272.69 468.092C272.176 468.372 271.745 468.757 271.395 469.247C271.045 469.737 270.788 470.308 270.625 470.962C270.461 471.615 270.38 472.315 270.38 473.062V480.412H274.79V482.932H263.66V480.412H267.65V468.092H264.08V465.572ZM290.095 470.052C290.095 470.892 290.445 471.533 291.145 471.977C291.869 472.42 293.175 472.712 295.065 472.852C297.095 473.015 298.635 473.505 299.685 474.322C300.759 475.115 301.295 476.282 301.295 477.822V478.032C301.295 478.872 301.12 479.63 300.77 480.307C300.444 480.96 299.977 481.52 299.37 481.987C298.787 482.453 298.064 482.803 297.2 483.037C296.36 483.293 295.439 483.422 294.435 483.422C293.082 483.422 291.915 483.247 290.935 482.897C289.979 482.523 289.174 482.045 288.52 481.462C287.89 480.855 287.412 480.178 287.085 479.432C286.759 478.662 286.572 477.892 286.525 477.122L289.115 476.492C289.232 477.822 289.745 478.895 290.655 479.712C291.565 480.505 292.779 480.902 294.295 480.902C295.579 480.902 296.605 480.657 297.375 480.167C298.169 479.653 298.565 478.942 298.565 478.032C298.565 477.052 298.18 476.352 297.41 475.932C296.64 475.512 295.392 475.243 293.665 475.127C291.659 474.987 290.119 474.52 289.045 473.727C287.972 472.933 287.435 471.778 287.435 470.262V470.052C287.435 469.235 287.61 468.523 287.96 467.917C288.31 467.287 288.777 466.762 289.36 466.342C289.967 465.922 290.644 465.607 291.39 465.397C292.137 465.187 292.919 465.082 293.735 465.082C294.879 465.082 295.882 465.245 296.745 465.572C297.609 465.875 298.332 466.283 298.915 466.797C299.499 467.287 299.942 467.858 300.245 468.512C300.572 469.165 300.782 469.818 300.875 470.472L298.285 471.102C298.169 469.982 297.714 469.107 296.92 468.477C296.15 467.847 295.135 467.532 293.875 467.532C293.385 467.532 292.907 467.59 292.44 467.707C291.997 467.8 291.6 467.952 291.25 468.162C290.9 468.372 290.62 468.64 290.41 468.967C290.2 469.27 290.095 469.632 290.095 470.052Z" fill="black"/>
<path d="M649.002 209.298C649.719 209.298 650.327 209.182 650.827 208.948C651.344 208.698 651.76 208.373 652.077 207.973C652.41 207.557 652.652 207.09 652.802 206.573C652.969 206.04 653.052 205.482 653.052 204.898V204.598H655.152V204.898C655.152 205.782 655.019 206.615 654.752 207.398C654.485 208.165 654.094 208.84 653.577 209.423C653.06 209.99 652.419 210.44 651.652 210.773C650.885 211.09 650.002 211.248 649.002 211.248C647.069 211.248 645.56 210.64 644.477 209.423C643.394 208.207 642.852 206.432 642.852 204.098V200.198C642.852 197.932 643.394 196.173 644.477 194.923C645.56 193.673 647.069 193.048 649.002 193.048C650.002 193.048 650.885 193.215 651.652 193.548C652.419 193.865 653.06 194.315 653.577 194.898C654.094 195.465 654.485 196.14 654.752 196.923C655.019 197.69 655.152 198.515 655.152 199.398V199.698H653.052V199.398C653.035 198.832 652.944 198.282 652.777 197.748C652.627 197.215 652.385 196.748 652.052 196.348C651.735 195.932 651.327 195.607 650.827 195.373C650.327 195.123 649.719 194.998 649.002 194.998C647.652 194.998 646.635 195.49 645.952 196.473C645.285 197.457 644.952 198.748 644.952 200.348V203.948C644.952 205.665 645.285 206.99 645.952 207.923C646.635 208.84 647.652 209.298 649.002 209.298ZM667.585 198.498H669.535V210.898H667.585V208.648H667.285C666.885 209.448 666.36 210.082 665.71 210.548C665.06 211.015 664.235 211.248 663.235 211.248C662.551 211.248 661.918 211.132 661.335 210.898C660.768 210.682 660.276 210.348 659.86 209.898C659.46 209.448 659.143 208.89 658.91 208.223C658.693 207.557 658.585 206.782 658.585 205.898V198.498H660.535V205.648C660.535 206.948 660.801 207.898 661.335 208.498C661.868 209.098 662.685 209.398 663.785 209.398C664.968 209.398 665.893 208.998 666.56 208.198C667.243 207.382 667.585 206.298 667.585 204.948V198.498ZM676.617 201.698C676.617 202.298 676.867 202.757 677.367 203.073C677.884 203.39 678.817 203.598 680.167 203.698C681.617 203.815 682.717 204.165 683.467 204.748C684.234 205.315 684.617 206.148 684.617 207.248V207.398C684.617 207.998 684.492 208.54 684.242 209.023C684.009 209.49 683.676 209.89 683.242 210.223C682.826 210.557 682.309 210.807 681.692 210.973C681.092 211.157 680.434 211.248 679.717 211.248C678.751 211.248 677.917 211.123 677.217 210.873C676.534 210.607 675.959 210.265 675.492 209.848C675.042 209.415 674.701 208.932 674.467 208.398C674.234 207.848 674.101 207.298 674.067 206.748L675.917 206.298C676.001 207.248 676.367 208.015 677.017 208.598C677.667 209.165 678.534 209.448 679.617 209.448C680.534 209.448 681.267 209.273 681.817 208.923C682.384 208.557 682.667 208.048 682.667 207.398C682.667 206.698 682.392 206.198 681.842 205.898C681.292 205.598 680.401 205.407 679.167 205.323C677.734 205.223 676.634 204.89 675.867 204.323C675.101 203.757 674.717 202.932 674.717 201.848V201.698C674.717 201.115 674.842 200.607 675.092 200.173C675.342 199.723 675.676 199.348 676.092 199.048C676.526 198.748 677.009 198.523 677.542 198.373C678.076 198.223 678.634 198.148 679.217 198.148C680.034 198.148 680.751 198.265 681.367 198.498C681.984 198.715 682.501 199.007 682.917 199.373C683.334 199.723 683.651 200.132 683.867 200.598C684.101 201.065 684.251 201.532 684.317 201.998L682.467 202.448C682.384 201.648 682.059 201.023 681.492 200.573C680.942 200.123 680.217 199.898 679.317 199.898C678.967 199.898 678.626 199.94 678.292 200.023C677.976 200.09 677.692 200.198 677.442 200.348C677.192 200.498 676.992 200.69 676.842 200.923C676.692 201.14 676.617 201.398 676.617 201.698ZM688.925 198.498H692.825V193.398H694.775V198.498H699.575V200.298H694.775V208.348C694.775 208.848 695 209.098 695.45 209.098H698.975V210.898H694.75C694.183 210.898 693.716 210.715 693.35 210.348C693 209.982 692.825 209.515 692.825 208.948V200.298H688.925V198.498ZM716.357 204.848C716.357 205.882 716.182 206.798 715.832 207.598C715.499 208.382 715.049 209.048 714.482 209.598C713.916 210.132 713.249 210.54 712.482 210.823C711.732 211.107 710.949 211.248 710.132 211.248C709.299 211.248 708.507 211.107 707.757 210.823C707.007 210.54 706.349 210.132 705.782 209.598C705.216 209.048 704.757 208.382 704.407 207.598C704.074 206.798 703.907 205.882 703.907 204.848V204.548C703.907 203.532 704.074 202.632 704.407 201.848C704.757 201.048 705.216 200.373 705.782 199.823C706.366 199.273 707.032 198.857 707.782 198.573C708.532 198.29 709.316 198.148 710.132 198.148C710.949 198.148 711.732 198.29 712.482 198.573C713.232 198.857 713.891 199.273 714.457 199.823C715.041 200.373 715.499 201.048 715.832 201.848C716.182 202.632 716.357 203.532 716.357 204.548V204.848ZM710.132 209.398C710.732 209.398 711.282 209.298 711.782 209.098C712.299 208.882 712.749 208.573 713.132 208.173C713.516 207.773 713.816 207.298 714.032 206.748C714.249 206.182 714.357 205.548 714.357 204.848V204.548C714.357 203.882 714.249 203.273 714.032 202.723C713.816 202.157 713.516 201.673 713.132 201.273C712.749 200.873 712.299 200.565 711.782 200.348C711.266 200.115 710.716 199.998 710.132 199.998C709.549 199.998 708.999 200.115 708.482 200.348C707.966 200.565 707.516 200.873 707.132 201.273C706.749 201.673 706.449 202.157 706.232 202.723C706.016 203.273 705.907 203.882 705.907 204.548V204.848C705.907 205.548 706.016 206.182 706.232 206.748C706.449 207.298 706.749 207.773 707.132 208.173C707.516 208.573 707.957 208.882 708.457 209.098C708.974 209.298 709.532 209.398 710.132 209.398ZM731.89 210.898H729.94V201.998C729.94 201.415 729.807 200.94 729.54 200.573C729.273 200.19 728.848 199.998 728.265 199.998C727.715 199.998 727.265 200.207 726.915 200.623C726.582 201.023 726.415 201.648 726.415 202.498V210.898H724.465V201.898C724.465 201.348 724.315 200.898 724.015 200.548C723.715 200.182 723.315 199.998 722.815 199.998C722.215 199.998 721.748 200.215 721.415 200.648C721.098 201.082 720.94 201.648 720.94 202.348V210.898H718.99V198.498H720.94V199.848H721.24C721.457 199.265 721.773 198.84 722.19 198.573C722.607 198.29 723.098 198.148 723.665 198.148C724.265 198.148 724.757 198.307 725.14 198.623C725.54 198.94 725.815 199.348 725.965 199.848H726.265C726.832 198.715 727.732 198.148 728.965 198.148C729.898 198.148 730.615 198.448 731.115 199.048C731.632 199.632 731.89 200.398 731.89 201.348V210.898ZM736.698 205.298C736.748 206.532 737.131 207.523 737.848 208.273C738.564 209.023 739.564 209.398 740.848 209.398C741.431 209.398 741.939 209.332 742.373 209.198C742.806 209.065 743.173 208.882 743.473 208.648C743.789 208.415 744.039 208.148 744.223 207.848C744.423 207.532 744.581 207.198 744.698 206.848L746.548 207.348C746.198 208.498 745.548 209.44 744.598 210.173C743.664 210.89 742.398 211.248 740.798 211.248C739.914 211.248 739.098 211.098 738.348 210.798C737.614 210.482 736.981 210.04 736.448 209.473C735.914 208.907 735.498 208.232 735.198 207.448C734.898 206.665 734.748 205.798 734.748 204.848V204.248C734.748 203.382 734.898 202.573 735.198 201.823C735.514 201.073 735.948 200.432 736.498 199.898C737.048 199.348 737.689 198.923 738.423 198.623C739.173 198.307 739.981 198.148 740.848 198.148C741.864 198.148 742.739 198.34 743.473 198.723C744.223 199.09 744.831 199.548 745.298 200.098C745.781 200.648 746.131 201.248 746.348 201.898C746.581 202.548 746.698 203.148 746.698 203.698V205.298H736.698ZM740.848 199.998C740.298 199.998 739.781 200.09 739.298 200.273C738.831 200.44 738.414 200.682 738.048 200.998C737.698 201.315 737.406 201.69 737.173 202.123C736.956 202.54 736.814 202.998 736.748 203.498H744.748C744.714 202.965 744.581 202.482 744.348 202.048C744.131 201.615 743.839 201.248 743.473 200.948C743.123 200.648 742.714 200.415 742.248 200.248C741.798 200.082 741.331 199.998 740.848 199.998ZM749.88 198.498H754.38V200.148H754.68C754.997 199.465 755.447 198.965 756.03 198.648C756.614 198.315 757.28 198.148 758.03 198.148C759.28 198.148 760.289 198.557 761.055 199.373C761.822 200.19 762.23 201.382 762.28 202.948L760.23 203.248C760.23 202.098 759.955 201.273 759.405 200.773C758.855 200.257 758.18 199.998 757.38 199.998C756.864 199.998 756.414 200.098 756.03 200.298C755.664 200.498 755.355 200.773 755.105 201.123C754.855 201.473 754.672 201.882 754.555 202.348C754.439 202.815 754.38 203.315 754.38 203.848V209.098H757.53V210.898H749.58V209.098H752.43V200.298H749.88V198.498ZM768.463 201.698C768.463 202.298 768.713 202.757 769.213 203.073C769.73 203.39 770.663 203.598 772.013 203.698C773.463 203.815 774.563 204.165 775.313 204.748C776.08 205.315 776.463 206.148 776.463 207.248V207.398C776.463 207.998 776.338 208.54 776.088 209.023C775.855 209.49 775.521 209.89 775.088 210.223C774.671 210.557 774.155 210.807 773.538 210.973C772.938 211.157 772.28 211.248 771.563 211.248C770.596 211.248 769.763 211.123 769.063 210.873C768.38 210.607 767.805 210.265 767.338 209.848C766.888 209.415 766.546 208.932 766.313 208.398C766.08 207.848 765.946 207.298 765.913 206.748L767.763 206.298C767.846 207.248 768.213 208.015 768.863 208.598C769.513 209.165 770.38 209.448 771.463 209.448C772.38 209.448 773.113 209.273 773.663 208.923C774.23 208.557 774.513 208.048 774.513 207.398C774.513 206.698 774.238 206.198 773.688 205.898C773.138 205.598 772.246 205.407 771.013 205.323C769.58 205.223 768.48 204.89 767.713 204.323C766.946 203.757 766.563 202.932 766.563 201.848V201.698C766.563 201.115 766.688 200.607 766.938 200.173C767.188 199.723 767.521 199.348 767.938 199.048C768.371 198.748 768.855 198.523 769.388 198.373C769.921 198.223 770.48 198.148 771.063 198.148C771.88 198.148 772.596 198.265 773.213 198.498C773.83 198.715 774.346 199.007 774.763 199.373C775.18 199.723 775.496 200.132 775.713 200.598C775.946 201.065 776.096 201.532 776.163 201.998L774.313 202.448C774.23 201.648 773.905 201.023 773.338 200.573C772.788 200.123 772.063 199.898 771.163 199.898C770.813 199.898 770.471 199.94 770.138 200.023C769.821 200.09 769.538 200.198 769.288 200.348C769.038 200.498 768.838 200.69 768.688 200.923C768.538 201.14 768.463 201.398 768.463 201.698Z" fill="black"/>
<path d="M9.17305 208.948H10.673L10.673 195.348H9.17305V193.398H16.248C17.0814 193.398 17.8147 193.515 18.448 193.748C19.098 193.982 19.6397 194.298 20.073 194.698C20.523 195.098 20.8564 195.582 21.073 196.148C21.3064 196.698 21.423 197.298 21.423 197.948V198.248C21.423 198.732 21.348 199.173 21.198 199.573C21.048 199.973 20.8397 200.332 20.573 200.648C20.3064 200.965 19.9897 201.24 19.623 201.473C19.273 201.69 18.8897 201.857 18.473 201.973V202.273C19.3064 202.507 20.0064 202.957 20.573 203.623C21.1397 204.273 21.423 205.073 21.423 206.023V206.323C21.423 206.973 21.3064 207.582 21.073 208.148C20.8564 208.698 20.523 209.182 20.073 209.598C19.6397 209.998 19.098 210.315 18.448 210.548C17.8147 210.782 17.0814 210.898 16.248 210.898H9.17305V208.948ZM12.773 208.948H16.098C17.0814 208.948 17.8814 208.707 18.498 208.223C19.1147 207.723 19.423 207.04 19.423 206.173V206.023C19.423 205.123 19.1314 204.415 18.548 203.898C17.9647 203.365 17.173 203.098 16.173 203.098H12.773L12.773 208.948ZM12.773 201.148H16.173C17.173 201.148 17.9647 200.89 18.548 200.373C19.1314 199.857 19.423 199.148 19.423 198.248V198.098C19.423 197.248 19.1147 196.582 18.498 196.098C17.8814 195.598 17.0814 195.348 16.098 195.348H12.773V201.148ZM34.0807 198.498H36.0307V210.898H34.0807V208.648H33.7807C33.3807 209.448 32.8557 210.082 32.2057 210.548C31.5557 211.015 30.7307 211.248 29.7307 211.248C29.0473 211.248 28.414 211.132 27.8307 210.898C27.264 210.682 26.7723 210.348 26.3557 209.898C25.9557 209.448 25.639 208.89 25.4057 208.223C25.189 207.557 25.0807 206.782 25.0807 205.898V198.498H27.0307V205.648C27.0307 206.948 27.2973 207.898 27.8307 208.498C28.364 209.098 29.1807 209.398 30.2807 209.398C31.464 209.398 32.389 208.998 33.0557 208.198C33.739 207.382 34.0807 206.298 34.0807 204.948V198.498ZM44.3883 194.798C44.3883 194.315 44.5549 193.907 44.8883 193.573C45.2383 193.223 45.6549 193.048 46.1383 193.048C46.6216 193.048 47.0299 193.223 47.3633 193.573C47.7133 193.907 47.8883 194.315 47.8883 194.798C47.8883 195.282 47.7133 195.698 47.3633 196.048C47.0299 196.382 46.6216 196.548 46.1383 196.548C45.6549 196.548 45.2383 196.382 44.8883 196.048C44.5549 195.698 44.3883 195.282 44.3883 194.798ZM40.8383 209.098H45.1883V200.298H41.2883V198.498H47.1383V209.098H51.1883V210.898H40.8383V209.098ZM55.8459 209.098H60.3459V195.198H55.9959V193.398H62.2959V209.098H66.7959V210.898H55.8459V209.098ZM80.7535 208.998H80.4535C80.2535 209.382 79.9952 209.715 79.6785 209.998C79.3785 210.282 79.0452 210.515 78.6785 210.698C78.3285 210.882 77.9535 211.015 77.5535 211.098C77.1535 211.198 76.7702 211.248 76.4035 211.248C75.5702 211.248 74.7952 211.107 74.0785 210.823C73.3618 210.54 72.7285 210.132 72.1785 209.598C71.6452 209.065 71.2202 208.407 70.9035 207.623C70.6035 206.823 70.4535 205.915 70.4535 204.898V204.498C70.4535 203.498 70.6118 202.607 70.9285 201.823C71.2452 201.023 71.6702 200.357 72.2035 199.823C72.7368 199.273 73.3618 198.857 74.0785 198.573C74.7952 198.29 75.5535 198.148 76.3535 198.148C77.2035 198.148 77.9952 198.34 78.7285 198.723C79.4785 199.09 80.0535 199.665 80.4535 200.448H80.7535V193.398H82.7035V210.898H80.7535V208.998ZM76.6035 209.398C77.1868 209.398 77.7285 209.29 78.2285 209.073C78.7285 208.857 79.1618 208.548 79.5285 208.148C79.9118 207.748 80.2118 207.273 80.4285 206.723C80.6452 206.157 80.7535 205.532 80.7535 204.848V204.548C80.7535 203.882 80.6452 203.273 80.4285 202.723C80.2118 202.157 79.9118 201.673 79.5285 201.273C79.1618 200.873 78.7202 200.565 78.2035 200.348C77.7035 200.115 77.1702 199.998 76.6035 199.998C76.0202 199.998 75.4702 200.107 74.9535 200.323C74.4535 200.54 74.0118 200.848 73.6285 201.248C73.2618 201.648 72.9702 202.123 72.7535 202.673C72.5535 203.223 72.4535 203.832 72.4535 204.498V204.898C72.4535 205.598 72.5535 206.223 72.7535 206.773C72.9702 207.323 73.2618 207.798 73.6285 208.198C74.0118 208.582 74.4535 208.882 74.9535 209.098C75.4535 209.298 76.0035 209.398 76.6035 209.398Z" fill="black"/>
<path d="M405.952 636.132C406.459 636.639 406.972 636.986 407.49 637.175C408.032 637.364 408.557 637.428 409.063 637.37C409.594 637.311 410.095 637.151 410.566 636.892C411.061 636.633 411.515 636.297 411.927 635.885L412.139 635.672L413.624 637.157L413.412 637.37C412.787 637.994 412.104 638.489 411.361 638.854C410.631 639.208 409.877 639.408 409.099 639.455C408.333 639.491 407.561 639.355 406.783 639.049C406.017 638.731 405.28 638.218 404.573 637.511C403.206 636.144 402.57 634.647 402.664 633.021C402.758 631.394 403.63 629.756 405.28 628.106L408.038 625.349C409.641 623.746 411.267 622.886 412.917 622.768C414.567 622.65 416.076 623.275 417.443 624.642C418.15 625.349 418.656 626.091 418.963 626.869C419.281 627.635 419.417 628.407 419.369 629.185C419.334 629.951 419.134 630.705 418.768 631.447C418.415 632.178 417.926 632.856 417.301 633.48L417.089 633.693L415.604 632.208L415.816 631.995C416.205 631.583 416.529 631.129 416.789 630.634C417.06 630.151 417.219 629.65 417.266 629.132C417.337 628.613 417.278 628.095 417.089 627.576C416.912 627.046 416.57 626.527 416.064 626.02C415.109 625.066 414.043 624.695 412.864 624.907C411.697 625.131 410.548 625.808 409.417 626.94L406.871 629.485C405.657 630.699 404.956 631.872 404.768 633.003C404.603 634.134 404.998 635.177 405.952 636.132ZM426.729 641.635L428.108 643.014L419.339 651.782L417.961 650.403L419.552 648.812L419.339 648.6C418.491 648.883 417.672 648.96 416.882 648.83C416.093 648.7 415.344 648.282 414.637 647.575C414.154 647.092 413.789 646.561 413.541 645.984C413.294 645.43 413.182 644.847 413.205 644.234C413.241 643.633 413.412 643.014 413.718 642.378C414.036 641.753 414.508 641.128 415.132 640.504L420.365 635.271L421.744 636.65L416.688 641.706C415.769 642.625 415.285 643.485 415.238 644.287C415.191 645.088 415.556 645.878 416.334 646.656C417.171 647.492 418.108 647.864 419.145 647.769C420.206 647.675 421.213 647.151 422.168 646.196L426.729 641.635ZM430.853 650.285C430.429 650.709 430.281 651.21 430.411 651.788C430.553 652.377 431.065 653.184 431.949 654.209C432.892 655.317 433.422 656.343 433.54 657.285C433.681 658.228 433.363 659.088 432.585 659.866L432.479 659.972C432.055 660.397 431.584 660.691 431.065 660.856C430.57 661.021 430.052 661.068 429.51 660.998C428.979 660.939 428.437 660.75 427.883 660.432C427.329 660.137 426.799 659.737 426.292 659.23C425.609 658.546 425.108 657.869 424.79 657.197C424.495 656.525 424.33 655.877 424.295 655.252C424.283 654.628 424.383 654.044 424.595 653.502C424.819 652.948 425.114 652.465 425.479 652.053L427.105 653.043C426.493 653.773 426.21 654.575 426.257 655.447C426.316 656.307 426.728 657.12 427.494 657.886C428.142 658.535 428.785 658.929 429.421 659.071C430.081 659.212 430.641 659.053 431.101 658.593C431.596 658.099 431.755 657.551 431.578 656.949C431.401 656.348 430.906 655.582 430.093 654.651C429.15 653.567 428.608 652.554 428.467 651.611C428.325 650.668 428.637 649.814 429.403 649.048L429.51 648.941C429.922 648.529 430.37 648.258 430.853 648.128C431.348 647.987 431.849 647.957 432.356 648.04C432.874 648.134 433.375 648.317 433.858 648.588C434.341 648.859 434.789 649.201 435.202 649.613C435.779 650.191 436.203 650.78 436.475 651.381C436.757 651.97 436.916 652.542 436.952 653.096C436.999 653.638 436.934 654.15 436.757 654.634C436.592 655.129 436.368 655.565 436.086 655.942L434.459 654.952C434.966 654.327 435.178 653.656 435.096 652.937C435.025 652.23 434.671 651.558 434.035 650.921C433.788 650.674 433.516 650.462 433.222 650.285C432.951 650.108 432.674 649.984 432.391 649.914C432.108 649.843 431.831 649.837 431.56 649.896C431.301 649.943 431.065 650.073 430.853 650.285ZM441.819 656.725L444.576 659.483L448.183 655.877L449.561 657.255L445.955 660.862L449.349 664.256L448.076 665.529L444.682 662.134L438.99 667.827C438.637 668.18 438.619 668.516 438.937 668.834L441.43 671.327L440.157 672.6L437.169 669.612C436.769 669.211 436.568 668.752 436.568 668.233C436.58 667.726 436.786 667.273 437.187 666.872L443.304 660.756L440.546 657.998L441.819 656.725ZM456.726 680.613C455.996 681.344 455.224 681.868 454.41 682.186C453.621 682.504 452.831 682.658 452.042 682.646C451.264 682.622 450.504 682.44 449.761 682.098C449.031 681.768 448.376 681.314 447.799 680.737C447.21 680.147 446.75 679.487 446.42 678.757C446.09 678.026 445.913 677.272 445.89 676.494C445.878 675.704 446.025 674.909 446.332 674.108C446.662 673.306 447.192 672.54 447.923 671.809L448.135 671.597C448.854 670.878 449.608 670.36 450.398 670.042C451.211 669.724 452.012 669.57 452.802 669.582C453.603 669.606 454.369 669.782 455.1 670.112C455.831 670.442 456.485 670.896 457.062 671.474C457.64 672.051 458.093 672.705 458.423 673.436C458.753 674.166 458.924 674.927 458.936 675.716C458.96 676.518 458.806 677.319 458.476 678.12C458.17 678.922 457.657 679.682 456.938 680.401L456.726 680.613ZM449.107 679.429C449.531 679.853 449.991 680.171 450.486 680.383C451.005 680.595 451.541 680.695 452.095 680.684C452.649 680.672 453.197 680.548 453.739 680.312C454.293 680.065 454.817 679.694 455.312 679.199L455.524 678.987C455.996 678.515 456.349 678.008 456.585 677.466C456.832 676.912 456.962 676.359 456.974 675.805C456.986 675.251 456.885 674.715 456.673 674.196C456.473 673.666 456.166 673.194 455.754 672.782C455.341 672.369 454.87 672.063 454.34 671.863C453.821 671.65 453.285 671.55 452.731 671.562C452.177 671.574 451.623 671.703 451.069 671.951C450.527 672.187 450.021 672.54 449.549 673.012L449.337 673.224C448.842 673.719 448.471 674.243 448.223 674.797C447.988 675.339 447.864 675.887 447.852 676.441C447.84 676.995 447.935 677.525 448.135 678.032C448.359 678.539 448.683 679.004 449.107 679.429ZM463.431 695.874L462.053 694.495L468.346 688.202C468.758 687.79 469 687.359 469.071 686.912C469.153 686.452 468.988 686.016 468.576 685.603C468.187 685.215 467.721 685.044 467.179 685.091C466.661 685.138 466.101 685.462 465.5 686.063L459.56 692.003L458.181 690.624L464.545 684.26C464.934 683.871 465.146 683.447 465.182 682.987C465.229 682.516 465.075 682.103 464.722 681.75C464.298 681.325 463.814 681.149 463.272 681.219C462.742 681.302 462.229 681.591 461.734 682.086L455.689 688.131L454.31 686.752L463.078 677.984L464.457 679.363L463.502 680.318L463.714 680.53C464.28 680.271 464.804 680.194 465.288 680.3C465.783 680.394 466.23 680.642 466.631 681.043C467.055 681.467 467.291 681.926 467.338 682.421C467.397 682.928 467.303 683.411 467.055 683.871L467.268 684.083C468.47 683.682 469.507 683.918 470.379 684.79C471.039 685.45 471.333 686.169 471.263 686.947C471.216 687.725 470.856 688.45 470.184 689.121L463.431 695.874ZM470.791 695.314C469.954 696.221 469.524 697.194 469.5 698.231C469.477 699.268 469.919 700.24 470.826 701.148C471.239 701.56 471.645 701.872 472.046 702.084C472.447 702.297 472.835 702.426 473.213 702.473C473.602 702.532 473.967 702.52 474.309 702.438C474.674 702.355 475.022 702.232 475.352 702.067L476.306 703.728C475.246 704.294 474.12 704.5 472.93 704.347C471.763 704.194 470.614 703.552 469.483 702.42C468.858 701.796 468.387 701.112 468.068 700.37C467.774 699.627 467.638 698.867 467.662 698.089C467.685 697.311 467.868 696.54 468.21 695.773C468.552 695.007 469.058 694.289 469.73 693.617L470.154 693.193C470.767 692.58 471.445 692.114 472.187 691.796C472.942 691.49 473.702 691.342 474.468 691.354C475.246 691.354 476 691.507 476.73 691.814C477.485 692.12 478.168 692.58 478.781 693.193C479.5 693.911 479.983 694.666 480.231 695.455C480.502 696.245 480.608 696.999 480.549 697.718C480.502 698.449 480.325 699.12 480.019 699.733C479.724 700.358 479.382 700.865 478.993 701.254L477.862 702.385L470.791 695.314ZM477.473 694.501C477.084 694.112 476.654 693.811 476.182 693.599C475.735 693.387 475.269 693.263 474.786 693.228C474.315 693.204 473.843 693.263 473.372 693.405C472.924 693.546 472.5 693.77 472.099 694.076L477.756 699.733C478.109 699.333 478.357 698.897 478.498 698.425C478.651 697.966 478.704 697.5 478.657 697.029C478.622 696.569 478.498 696.115 478.286 695.667C478.086 695.231 477.815 694.842 477.473 694.501ZM484.921 699.827L488.103 703.009L486.936 704.176L487.148 704.388C487.855 704.129 488.527 704.093 489.163 704.282C489.811 704.459 490.401 704.812 490.931 705.342C491.815 706.226 492.239 707.228 492.204 708.348C492.168 709.467 491.615 710.599 490.542 711.742L488.88 710.504C489.694 709.691 490.082 708.913 490.047 708.171C490.024 707.417 489.729 706.757 489.163 706.191C488.798 705.826 488.409 705.578 487.997 705.449C487.596 705.331 487.183 705.307 486.759 705.378C486.335 705.449 485.916 705.608 485.504 705.855C485.091 706.103 484.697 706.415 484.32 706.792L480.607 710.504L482.835 712.732L481.562 714.005L475.94 708.383L477.213 707.11L479.228 709.126L485.451 702.903L483.648 701.1L484.921 699.827ZM495.798 715.23C495.373 715.654 495.226 716.155 495.356 716.732C495.497 717.322 496.01 718.129 496.894 719.154C497.837 720.262 498.367 721.287 498.485 722.23C498.626 723.173 498.308 724.033 497.53 724.811L497.424 724.917C497 725.341 496.528 725.636 496.01 725.801C495.515 725.966 494.996 726.013 494.454 725.942C493.924 725.883 493.382 725.695 492.828 725.377C492.274 725.082 491.744 724.681 491.237 724.175C490.553 723.491 490.053 722.813 489.734 722.142C489.44 721.47 489.275 720.822 489.239 720.197C489.228 719.573 489.328 718.989 489.54 718.447C489.764 717.893 490.058 717.41 490.424 716.997L492.05 717.987C491.437 718.718 491.154 719.519 491.202 720.392C491.26 721.252 491.673 722.065 492.439 722.831C493.087 723.479 493.729 723.874 494.366 724.015C495.026 724.157 495.586 723.998 496.045 723.538C496.54 723.043 496.699 722.495 496.523 721.894C496.346 721.293 495.851 720.527 495.038 719.596C494.095 718.512 493.553 717.498 493.411 716.556C493.27 715.613 493.582 714.758 494.348 713.992L494.454 713.886C494.867 713.474 495.315 713.203 495.798 713.073C496.293 712.932 496.794 712.902 497.3 712.985C497.819 713.079 498.32 713.262 498.803 713.533C499.286 713.804 499.734 714.145 500.146 714.558C500.724 715.135 501.148 715.725 501.419 716.326C501.702 716.915 501.861 717.487 501.897 718.04C501.944 718.583 501.879 719.095 501.702 719.578C501.537 720.073 501.313 720.509 501.03 720.887L499.404 719.897C499.911 719.272 500.123 718.6 500.04 717.881C499.97 717.174 499.616 716.502 498.98 715.866C498.732 715.619 498.461 715.406 498.167 715.23C497.896 715.053 497.619 714.929 497.336 714.858C497.053 714.788 496.776 714.782 496.505 714.841C496.246 714.888 496.01 715.018 495.798 715.23Z" fill="black"/>
<path d="M530.356 458.432H545.896V461.162H539.596V480.202H545.896V482.932H530.356V480.202H536.656V461.162H530.356V458.432ZM568.587 482.932H565.857V470.472C565.857 469.655 565.67 468.99 565.297 468.477C564.923 467.94 564.328 467.672 563.512 467.672C562.742 467.672 562.112 467.963 561.622 468.547C561.155 469.107 560.922 469.982 560.922 471.172V482.932H558.192V470.332C558.192 469.562 557.982 468.932 557.562 468.442C557.142 467.928 556.582 467.672 555.882 467.672C555.042 467.672 554.388 467.975 553.922 468.582C553.478 469.188 553.257 469.982 553.257 470.962V482.932H550.527V465.572H553.257V467.462H553.677C553.98 466.645 554.423 466.05 555.007 465.677C555.59 465.28 556.278 465.082 557.072 465.082C557.912 465.082 558.6 465.303 559.137 465.747C559.697 466.19 560.082 466.762 560.292 467.462H560.712C561.505 465.875 562.765 465.082 564.492 465.082C565.798 465.082 566.802 465.502 567.502 466.342C568.225 467.158 568.587 468.232 568.587 469.562V482.932ZM575.422 489.932H572.692V465.572H575.422V468.302H575.842C576.449 467.252 577.289 466.458 578.362 465.922C579.436 465.362 580.602 465.082 581.862 465.082C582.936 465.082 583.951 465.28 584.907 465.677C585.864 466.073 586.704 466.645 587.427 467.392C588.174 468.138 588.757 469.06 589.177 470.157C589.621 471.253 589.842 472.502 589.842 473.902V474.602C589.842 476.025 589.632 477.285 589.212 478.382C588.792 479.478 588.209 480.4 587.462 481.147C586.739 481.893 585.887 482.465 584.907 482.862C583.927 483.235 582.889 483.422 581.792 483.422C581.232 483.422 580.661 483.352 580.077 483.212C579.494 483.095 578.934 482.908 578.397 482.652C577.884 482.372 577.406 482.045 576.962 481.672C576.519 481.275 576.146 480.808 575.842 480.272H575.422V489.932ZM581.232 480.832C582.072 480.832 582.842 480.692 583.542 480.412C584.242 480.108 584.849 479.688 585.362 479.152C585.899 478.615 586.307 477.962 586.587 477.192C586.891 476.422 587.042 475.558 587.042 474.602V473.902C587.042 472.968 586.891 472.128 586.587 471.382C586.307 470.612 585.899 469.958 585.362 469.422C584.849 468.862 584.231 468.43 583.507 468.127C582.807 467.823 582.049 467.672 581.232 467.672C580.416 467.672 579.657 467.835 578.957 468.162C578.257 468.465 577.639 468.897 577.102 469.457C576.589 470.017 576.181 470.693 575.877 471.487C575.574 472.257 575.422 473.108 575.422 474.042V474.462C575.422 475.418 575.574 476.293 575.877 477.087C576.181 477.857 576.589 478.522 577.102 479.082C577.639 479.642 578.257 480.073 578.957 480.377C579.657 480.68 580.416 480.832 581.232 480.832ZM607.353 479.992H606.933C606.373 481.158 605.591 482.022 604.588 482.582C603.608 483.142 602.57 483.422 601.473 483.422C600.33 483.422 599.268 483.235 598.288 482.862C597.308 482.465 596.445 481.893 595.698 481.147C594.975 480.377 594.403 479.443 593.983 478.347C593.563 477.25 593.353 475.978 593.353 474.532V473.972C593.353 472.548 593.563 471.288 593.983 470.192C594.403 469.095 594.975 468.173 595.698 467.427C596.445 466.657 597.308 466.073 598.288 465.677C599.268 465.28 600.306 465.082 601.403 465.082C602.593 465.082 603.666 465.35 604.623 465.887C605.603 466.4 606.373 467.205 606.933 468.302H607.353V465.572H610.083V479.362C610.083 480.062 610.398 480.412 611.028 480.412H611.903V482.932H610.048C609.255 482.932 608.601 482.675 608.088 482.162C607.598 481.648 607.353 480.995 607.353 480.202V479.992ZM601.753 480.832C602.57 480.832 603.316 480.68 603.993 480.377C604.693 480.073 605.288 479.642 605.778 479.082C606.268 478.522 606.653 477.857 606.933 477.087C607.213 476.293 607.353 475.418 607.353 474.462V474.042C607.353 473.108 607.213 472.257 606.933 471.487C606.653 470.693 606.256 470.017 605.743 469.457C605.253 468.897 604.658 468.465 603.958 468.162C603.281 467.835 602.546 467.672 601.753 467.672C600.936 467.672 600.19 467.823 599.513 468.127C598.836 468.43 598.241 468.862 597.728 469.422C597.238 469.958 596.853 470.623 596.573 471.417C596.293 472.187 596.153 473.038 596.153 473.972V474.532C596.153 476.515 596.666 478.067 597.693 479.187C598.743 480.283 600.096 480.832 601.753 480.832ZM632.424 476.772C632.237 477.728 631.91 478.615 631.444 479.432C631 480.248 630.429 480.96 629.729 481.567C629.029 482.15 628.212 482.605 627.279 482.932C626.345 483.258 625.307 483.422 624.164 483.422C622.95 483.422 621.795 483.223 620.699 482.827C619.625 482.43 618.68 481.858 617.864 481.112C617.047 480.342 616.394 479.408 615.904 478.312C615.437 477.215 615.204 475.955 615.204 474.532V474.112C615.204 472.712 615.437 471.452 615.904 470.332C616.394 469.212 617.047 468.267 617.864 467.497C618.68 466.727 619.625 466.132 620.699 465.712C621.795 465.292 622.95 465.082 624.164 465.082C625.26 465.082 626.275 465.245 627.209 465.572C628.142 465.898 628.959 466.365 629.659 466.972C630.382 467.555 630.965 468.255 631.409 469.072C631.875 469.888 632.19 470.775 632.354 471.732L629.624 472.362C629.554 471.755 629.379 471.172 629.099 470.612C628.842 470.028 628.48 469.527 628.014 469.107C627.57 468.663 627.022 468.313 626.369 468.057C625.715 467.8 624.957 467.672 624.094 467.672C623.254 467.672 622.46 467.835 621.714 468.162C620.99 468.465 620.349 468.908 619.789 469.492C619.229 470.052 618.785 470.728 618.459 471.522C618.155 472.315 618.004 473.178 618.004 474.112V474.532C618.004 475.512 618.155 476.398 618.459 477.192C618.785 477.962 619.229 478.615 619.789 479.152C620.349 479.688 621.002 480.108 621.749 480.412C622.495 480.692 623.3 480.832 624.164 480.832C625.027 480.832 625.774 480.703 626.404 480.447C627.057 480.167 627.605 479.817 628.049 479.397C628.515 478.953 628.877 478.452 629.134 477.892C629.414 477.332 629.6 476.748 629.694 476.142L632.424 476.772ZM637.019 465.572H642.479V458.432H645.209V465.572H651.929V468.092H645.209V479.362C645.209 480.062 645.524 480.412 646.154 480.412H651.089V482.932H645.174C644.381 482.932 643.728 482.675 643.214 482.162C642.724 481.648 642.479 480.995 642.479 480.202V468.092H637.019V465.572Z" fill="black"/>
<path d="M415.766 364.107C415.791 364.107 415.815 364.107 415.864 364.107C416.184 364.107 416.454 363.915 416.552 363.628C416.675 363.317 416.528 362.958 416.233 362.766L404.735 356.04C404.391 355.825 403.924 355.944 403.728 356.28C403.507 356.615 403.63 357.069 403.973 357.261L412.621 362.312C408.199 361.929 403.015 361.713 397.807 361.617L399.944 356.495C399.969 356.447 401.713 352.138 403.236 347.758C406.209 339.117 405.62 337.848 404.833 337.322C404.539 337.13 404.17 337.082 403.826 337.202C403.286 337.393 402.205 337.776 399.281 345.676C397.881 349.434 396.726 353.168 396.726 353.216C396.701 353.287 395.743 356.782 394.515 361.57C381.961 361.426 370.267 361.857 370.07 361.857C369.652 361.881 369.358 362.216 369.358 362.599C369.382 363.006 369.702 363.293 370.119 363.293C370.316 363.293 381.789 362.862 394.146 363.006C393.483 365.687 392.746 368.679 392.058 371.671L383.951 391.155C383.803 391.514 383.975 391.945 384.368 392.089C384.467 392.113 384.565 392.137 384.639 392.137C384.934 392.137 385.204 391.969 385.327 391.682L390.437 379.402C390.142 381.006 389.872 382.538 389.7 383.879C389.651 384.262 389.921 384.645 390.338 384.692C390.732 384.74 391.125 384.477 391.174 384.07C391.641 380.743 392.525 376.434 393.508 372.102L397.291 363.054C403.949 363.197 410.68 363.508 415.766 364.107ZM398.102 353.646C400.043 347.399 402.696 340.409 403.998 338.878C404.023 339.667 403.752 341.846 401.689 347.806C400.239 351.995 398.593 355.968 398.593 355.992L396.235 361.617C396.161 361.617 396.087 361.617 396.014 361.617C397.168 357.045 398.102 353.742 398.102 353.646Z" fill="#CECECE"/>
<path d="M587.851 249.801L631.732 220.785L788.47 220.785" stroke="#202020" stroke-width="1.5"/>
<path d="M202.517 249.769L156.993 219.354L0.254322 219.354" stroke="#202020" stroke-width="1.5"/>
<path d="M493.694 733.744L394.979 631.989L394.979 574.667" stroke="#202020" stroke-width="1.5"/>
</svg>
